<svg xmlns="http://www.w3.org/2000/svg" width="38" height="36" viewBox="0 0 38 36">
    <path fill="#58329E" fill-rule="evenodd" d="M36.124 12.142l-9.795-1.07c-.6-.08-1.079-.436-1.319-.95l-4.037-8.874c-.76-1.664-3.119-1.664-3.878 0l-4.078 8.873c-.24.515-.76.911-1.319.951l-9.794 1.07c-1.84.198-2.559 2.416-1.2 3.644l7.276 6.576c.44.396.64.99.52 1.545L6.5 33.454c-.36 1.783 1.56 3.17 3.158 2.258l8.555-4.833a1.719 1.719 0 0 1 1.64 0l8.554 4.833c1.6.911 3.518-.475 3.158-2.258l-1.999-9.547c-.16-.555.04-1.149.48-1.545l7.276-6.576c1.32-1.188.6-3.446-1.2-3.644z"/>
</svg>
